<?xml version="1.0" encoding="UTF-8"?>
<!DOCTYPE svg PUBLIC "-//W3C//DTD SVG 1.1//EN" "http://www.w3.org/Graphics/SVG/1.1/DTD/svg11.dtd">
<svg xmlns="http://www.w3.org/2000/svg" version="1.1" width="96px" height="96px" style="shape-rendering:geometricPrecision; text-rendering:geometricPrecision; image-rendering:optimizeQuality; fill-rule:evenodd; clip-rule:evenodd" xmlns:xlink="http://www.w3.org/1999/xlink">
<g><path style="opacity:0.049" fill="#000000" d="M 95.5,42.5 C 95.5,46.8333 95.5,51.1667 95.5,55.5C 90.8882,75.4468 78.8882,88.7802 59.5,95.5C 51.5,95.5 43.5,95.5 35.5,95.5C 15.693,89.2352 3.69296,75.9018 -0.5,55.5C -0.5,51.1667 -0.5,46.8333 -0.5,42.5C 8.54224,9.67814 29.8756,-3.15519 63.5,4C 80.9347,11.2632 91.6014,24.0965 95.5,42.5 Z"/></g>
<g><path style="opacity:1" fill="#faf9f9" d="M 38.5,3.5 C 65.5422,1.06683 83.0422,12.7335 91,38.5C 93.9203,65.5641 82.4203,83.0641 56.5,91C 29.4359,93.9203 11.9359,82.4203 4,56.5C 1.2868,29.4112 12.7868,11.7445 38.5,3.5 Z"/></g>
<g><path style="opacity:1" fill="#fd1514" d="M 31.5,64.5 C 31.5,65.5 31.5,66.5 31.5,67.5C 30.1871,51.982 28.8537,36.3154 27.5,20.5C 28.7206,19.9717 29.8873,19.305 31,18.5C 31.4999,33.8297 31.6666,49.163 31.5,64.5 Z"/></g>
<g><path style="opacity:1" fill="#fe231b" d="M 78.5,31.5 C 78.5,33.5 78.5,35.5 78.5,37.5C 77.0224,43.6373 75.8558,49.9707 75,56.5C 74.8276,50.3193 74.3276,44.3193 73.5,38.5C 73.5778,28.0285 68.5778,23.1951 58.5,24C 54.1541,27.8585 51.8208,32.6918 51.5,38.5C 50.5028,38.4701 49.8361,38.9701 49.5,40C 48.8392,42.464 48.3392,44.964 48,47.5C 46.2495,48.2225 44.7495,49.2225 43.5,50.5C 42.5779,39.6676 45.5779,30.1676 52.5,22C 64.5609,15.9642 73.2276,19.1308 78.5,31.5 Z"/></g>
<g><path style="opacity:1" fill="#fe2c24" d="M 25.5,21.5 C 25.5,22.5 25.5,23.5 25.5,24.5C 24.596,25.209 24.2627,26.209 24.5,27.5C 20.9359,26.5773 17.2693,26.244 13.5,26.5C 13.5,25.5 13.5,24.5 13.5,23.5C 17.4432,22.5145 21.4432,21.8478 25.5,21.5 Z"/></g>
<g><path style="opacity:1" fill="#fcf8f9" d="M 73.5,38.5 C 73.5,41.5 73.5,44.5 73.5,47.5C 72.8186,45.8415 71.9853,44.1749 71,42.5C 69.2231,49.0392 68.2231,55.7059 68,62.5C 67.6667,62.1667 67.3333,61.8333 67,61.5C 66.5653,49.6885 65.0653,38.0219 62.5,26.5C 61.0321,33.0754 60.1988,39.7421 60,46.5C 59.2904,47.9733 58.1238,48.6399 56.5,48.5C 56.7989,50.604 56.4656,52.604 55.5,54.5C 54.6099,49.915 53.2765,45.5817 51.5,41.5C 51.5,40.5 51.5,39.5 51.5,38.5C 51.8208,32.6918 54.1541,27.8585 58.5,24C 68.5778,23.1951 73.5778,28.0285 73.5,38.5 Z"/></g>
<g><path style="opacity:1" fill="#bd465b" d="M 25.5,24.5 C 25.9926,26.8056 26.3259,29.139 26.5,31.5C 26.1667,31.5 25.8333,31.5 25.5,31.5C 25.7373,30.209 25.404,29.209 24.5,28.5C 24.5,28.1667 24.5,27.8333 24.5,27.5C 24.2627,26.209 24.596,25.209 25.5,24.5 Z"/></g>
<g><path style="opacity:1" fill="#7c91c2" d="M 78.5,31.5 C 79.9663,32.347 80.7996,33.6803 81,35.5C 81.4966,37.8098 81.6633,40.1432 81.5,42.5C 80.596,41.791 80.2627,40.791 80.5,39.5C 80.5,38.1667 79.8333,37.5 78.5,37.5C 78.5,35.5 78.5,33.5 78.5,31.5 Z"/></g>
<g><path style="opacity:1" fill="#fdf6f7" d="M 66.5,70.5 C 61.3195,73.1926 57.1528,71.8593 54,66.5C 51.3932,59.4218 50.2265,52.0884 50.5,44.5C 50.3284,43.5084 50.6618,42.8417 51.5,42.5C 51.698,48.1689 53.0314,53.5022 55.5,58.5C 56.8962,56.0284 57.7296,53.3617 58,50.5C 59.0113,49.6634 60.1779,49.33 61.5,49.5C 61.2338,45.3951 61.7338,41.3951 63,37.5C 64.1415,48.5092 65.3082,59.5092 66.5,70.5 Z"/></g>
<g><path style="opacity:1" fill="#fc261f" d="M 25.5,31.5 C 25.8333,31.5 26.1667,31.5 26.5,31.5C 27.8394,44.9739 29.1727,58.3072 30.5,71.5C 30.5,72.5 30.5,73.5 30.5,74.5C 25.1667,74.5 19.8333,74.5 14.5,74.5C 14.5,73.1667 14.5,71.8333 14.5,70.5C 17.5788,70.7399 20.5788,70.4066 23.5,69.5C 24.4979,61.1932 24.8312,52.8599 24.5,44.5C 24.5865,40.1434 24.9198,35.81 25.5,31.5 Z"/></g>
<g><path style="opacity:1" fill="#9ebde2" d="M 20.5,53.5 C 18.6652,50.158 17.4985,46.4914 17,42.5C 16.088,44.6585 15.2546,46.8252 14.5,49C 12.1667,49.6667 9.83333,49.6667 7.5,49C 9.76399,48.7638 11.9307,48.2638 14,47.5C 14.5468,44.2976 15.5468,41.2976 17,38.5C 18.6382,43.3863 19.8048,48.3863 20.5,53.5 Z"/></g>
<g><path style="opacity:1" fill="#fc1c16" d="M 80.5,39.5 C 80.2627,40.791 80.596,41.791 81.5,42.5C 82.3252,52.5427 80.1586,61.876 75,70.5C 62.5104,80.2904 52.8437,77.9571 46,63.5C 45.433,60.8323 44.933,58.1656 44.5,55.5C 43.9952,51.8368 45.4952,49.5035 49,48.5C 49.21,46.9419 49.71,45.6085 50.5,44.5C 50.2265,52.0884 51.3932,59.4218 54,66.5C 57.1528,71.8593 61.3195,73.1926 66.5,70.5C 67.8333,70.5 68.5,69.8333 68.5,68.5C 70.873,66.4208 72.2064,63.7541 72.5,60.5C 73.1515,61.0906 73.8182,61.7573 74.5,62.5C 76.6921,55.3315 78.1921,47.9982 79,40.5C 79.3826,39.944 79.8826,39.6107 80.5,39.5 Z"/></g>
<g><path style="opacity:1" fill="#a26384" d="M 51.5,38.5 C 51.5,39.5 51.5,40.5 51.5,41.5C 51.5,41.8333 51.5,42.1667 51.5,42.5C 50.6618,42.8417 50.3284,43.5084 50.5,44.5C 49.71,45.6085 49.21,46.9419 49,48.5C 45.4952,49.5035 43.9952,51.8368 44.5,55.5C 43.0719,53.9259 42.7386,52.2592 43.5,50.5C 44.7495,49.2225 46.2495,48.2225 48,47.5C 48.3392,44.964 48.8392,42.464 49.5,40C 49.8361,38.9701 50.5028,38.4701 51.5,38.5 Z"/></g>
<g><path style="opacity:1" fill="#90acd4" d="M 32.5,70.5 C 32.5,71.8333 32.5,73.1667 32.5,74.5C 31.7321,75.2625 31.2321,76.2625 31,77.5C 30.5172,76.552 30.3505,75.552 30.5,74.5C 30.5,73.5 30.5,72.5 30.5,71.5C 30.8333,70.1667 31.1667,68.8333 31.5,67.5C 31.5,66.5 31.5,65.5 31.5,64.5C 32.4881,59.3595 32.8214,54.0262 32.5,48.5C 34.3904,48.7035 35.8904,48.0368 37,46.5C 37.1667,46.8333 37.3333,47.1667 37.5,47.5C 35.5761,49.0087 34.4094,51.0087 34,53.5C 33.5545,59.1798 33.0545,64.8465 32.5,70.5 Z"/></g>
<g><path style="opacity:1" fill="#8eabd6" d="M 24.5,28.5 C 25.404,29.209 25.7373,30.209 25.5,31.5C 24.9198,35.81 24.5865,40.1434 24.5,44.5C 23.7911,49.0993 22.7911,53.7659 21.5,58.5C 20.5481,56.9547 20.2148,55.288 20.5,53.5C 22.844,45.4617 24.1773,37.1283 24.5,28.5 Z"/></g>
<g><path style="opacity:1" fill="#f4eff3" d="M 73.5,54.5 C 73.4828,56.5648 73.1495,58.5648 72.5,60.5C 72.2064,63.7541 70.873,66.4208 68.5,68.5C 69.8415,62.2506 70.6749,55.9173 71,49.5C 71.9853,51.1749 72.8186,52.8415 73.5,54.5 Z"/></g>
<g><path style="opacity:1" fill="#aa6a8a" d="M 78.5,37.5 C 79.8333,37.5 80.5,38.1667 80.5,39.5C 79.8826,39.6107 79.3826,39.944 79,40.5C 78.1921,47.9982 76.6921,55.3315 74.5,62.5C 73.8182,61.7573 73.1515,61.0906 72.5,60.5C 73.1495,58.5648 73.4828,56.5648 73.5,54.5C 73.5,52.1667 73.5,49.8333 73.5,47.5C 73.5,44.5 73.5,41.5 73.5,38.5C 74.3276,44.3193 74.8276,50.3193 75,56.5C 75.8558,49.9707 77.0224,43.6373 78.5,37.5 Z"/></g>
<g><path style="opacity:1" fill="#a35c7a" d="M 27.5,20.5 C 28.8537,36.3154 30.1871,51.982 31.5,67.5C 31.1667,68.8333 30.8333,70.1667 30.5,71.5C 29.1727,58.3072 27.8394,44.9739 26.5,31.5C 26.3259,29.139 25.9926,26.8056 25.5,24.5C 25.5,23.5 25.5,22.5 25.5,21.5C 25.8417,20.6618 26.5084,20.3284 27.5,20.5 Z"/></g>
<g><path style="opacity:1" fill="#97b6dd" d="M 73.5,47.5 C 73.5,49.8333 73.5,52.1667 73.5,54.5C 72.8186,52.8415 71.9853,51.1749 71,49.5C 70.6749,55.9173 69.8415,62.2506 68.5,68.5C 68.5,69.8333 67.8333,70.5 66.5,70.5C 65.3082,59.5092 64.1415,48.5092 63,37.5C 61.7338,41.3951 61.2338,45.3951 61.5,49.5C 60.1779,49.33 59.0113,49.6634 58,50.5C 57.7296,53.3617 56.8962,56.0284 55.5,58.5C 53.0314,53.5022 51.698,48.1689 51.5,42.5C 51.5,42.1667 51.5,41.8333 51.5,41.5C 53.2765,45.5817 54.6099,49.915 55.5,54.5C 56.4656,52.604 56.7989,50.604 56.5,48.5C 58.1238,48.6399 59.2904,47.9733 60,46.5C 60.1988,39.7421 61.0321,33.0754 62.5,26.5C 65.0653,38.0219 66.5653,49.6885 67,61.5C 67.3333,61.8333 67.6667,62.1667 68,62.5C 68.2231,55.7059 69.2231,49.0392 71,42.5C 71.9853,44.1749 72.8186,45.8415 73.5,47.5 Z"/></g>
<g><path style="opacity:1" fill="#ff1915" d="M 32.5,70.5 C 35.5,70.5 38.5,70.5 41.5,70.5C 41.5,71.8333 41.5,73.1667 41.5,74.5C 38.5,74.5 35.5,74.5 32.5,74.5C 32.5,73.1667 32.5,71.8333 32.5,70.5 Z"/></g>
</svg>
